<svg width="32" height="32" viewBox="0 -48 170 170" fill="none" xmlns="http://www.w3.org/2000/svg">
  <path
    d="M20 20 L20 54 M20 20 H28 C35 20 40 23 40 29.5 C40 36 34 38.5 28 38.5 H20"
    stroke="#1E293B"
    stroke-width="6.5"
    stroke-linecap="square"
    stroke-linejoin="miter"
  />
  <path
    d="M27 38.5 L39.5 54"
    stroke="#1E293B"
    stroke-width="6.5"
    stroke-linecap="square"
  />
  <path
    d="M20 31.5 L12 37"
    stroke="#1E293B"
    stroke-width="4"
    stroke-linecap="square"
  />

  <path
    d="M75 37 C67.5 27 54 27 46.5 37 C39 47 52.5 47 60 37 L90 37 C97.5 27 111 27 118.5 37 C126 47 112.5 47 105 37 L75 37 Z"
    stroke="#06B6D4"
    stroke-width="6.5"
    stroke-linecap="round"
    stroke-linejoin="round"
  />

  <path
    d="M125 54 V20 L138 38 L151 20 V54"
    stroke="#1E293B"
    stroke-width="6.5"
    stroke-linecap="square"
    stroke-linejoin="miter"
  />
  <path
    d="M151 32 L156 20 M151 54 V34"
    stroke="#06B6D4"
    stroke-width="2.5"
    stroke-linecap="round"
  />
</svg>
